<svg width="286" height="259" viewBox="0 0 286 259" fill="none" xmlns="http://www.w3.org/2000/svg">
<path d="M255.499 55.5215L246.711 60.2945L255.499 55.5214C245.744 37.5621 233.446 25.9161 220.162 18.8989C206.957 11.9232 193.359 9.82442 181.353 10.0113C169.381 10.1977 158.771 12.6561 151.213 15.0218C147.882 16.0643 145.099 17.1031 143 17.9527C140.901 17.1031 138.118 16.0643 134.787 15.0217C127.229 12.6561 116.618 10.1977 104.646 10.0113C92.6405 9.82442 79.0423 11.9232 65.8372 18.8989C52.5536 25.9162 40.2559 37.5621 30.5011 55.5215C11.4025 90.6836 7.10205 137.635 11.6836 175.423C13.982 194.38 18.6043 211.83 25.3056 224.864C31.6486 237.201 41.76 249 56.3123 249C70.2342 249 81.3553 242.942 89.7826 235.401C105.573 244.069 123.721 249 143 249C162.279 249 180.427 244.069 196.217 235.401C204.645 242.942 215.766 249 229.689 249C244.241 249 254.352 237.201 260.695 224.864C267.396 211.83 272.019 194.38 274.317 175.423C278.898 137.635 274.597 90.6835 255.499 55.5215Z" fill="#E5DDCF" stroke="#E5DDCF" stroke-width="20" stroke-linejoin="round"/>
<path class="face" fill-rule="evenodd" clip-rule="evenodd" d="M143 239C198.446 239 243.393 194.247 243.393 139.041C243.393 83.8355 198.446 39.0825 143 39.0825C87.5542 39.0825 42.6066 83.8355 42.6066 139.041C42.6066 194.247 87.5542 239 143 239Z" fill="#F9F6F2"/>
<path class="eye" fill-rule="evenodd" clip-rule="evenodd" d="M92.8034 161.032C98.348 161.032 102.843 156.557 102.843 151.036C102.843 145.516 98.348 141.04 92.8034 141.04C87.2589 141.04 82.7641 145.516 82.7641 151.036C82.7641 156.557 87.2589 161.032 92.8034 161.032Z" fill="#B8A88F"/>
<path class="eye" fill-rule="evenodd" clip-rule="evenodd" d="M193.197 161.032C198.741 161.032 203.236 156.557 203.236 151.036C203.236 145.516 198.741 141.04 193.197 141.04C187.652 141.04 183.158 145.516 183.158 151.036C183.158 156.557 187.652 161.032 193.197 161.032Z" fill="#B8A88F"/>
<path fill-rule="evenodd" clip-rule="evenodd" d="M117.9 208.763C116.292 208.763 114.958 207.497 114.892 205.884C114.826 204.229 116.12 202.833 117.782 202.767L167.978 200.768C169.663 200.728 171.041 201.99 171.109 203.645C171.174 205.299 169.881 206.695 168.219 206.761L118.023 208.761C117.982 208.762 117.941 208.763 117.9 208.763H117.9Z" fill="#B8A88F"/>
<path fill-rule="evenodd" clip-rule="evenodd" d="M157.536 173.431C156.099 172.599 154.254 173.09 153.422 174.523C153.111 175.057 152.753 175.553 152.37 176.026C150.101 178.831 146.659 180.524 142.999 180.524C139.342 180.524 135.9 178.831 133.631 176.026C133.248 175.552 132.889 175.056 132.578 174.522C131.744 173.09 129.903 172.6 128.462 173.431C127.023 174.261 126.533 176.096 127.366 177.529C129.032 180.393 131.438 182.69 134.256 184.249C135.254 188.134 138.791 191.02 142.999 191.02C147.209 191.02 150.746 188.135 151.745 184.249C154.563 182.69 156.969 180.392 158.635 177.528C159.468 176.095 158.977 174.261 157.536 173.431ZM142.999 188.021C141.176 188.021 139.543 187.206 138.437 185.928C139.911 186.315 141.442 186.522 142.999 186.522C144.557 186.522 146.088 186.315 147.563 185.928C146.457 187.206 144.823 188.021 142.999 188.021Z" fill="#B8A88F"/>
<path fill-rule="evenodd" clip-rule="evenodd" d="M246.711 60.2945C211.12 -5.23048 143 28.8694 143 28.8694V28.8694C143 28.8694 74.879 -5.23049 39.2885 60.2945C3.69806 125.819 22.064 239 56.3123 239C69.8222 239 80.3756 231.675 88.2053 222.804C77.3808 215.77 68.0111 206.705 60.6212 196.163C62.3469 172.32 52.6459 129.636 52.6459 114.051C52.6459 119.572 57.1405 124.047 62.6852 124.047C68.23 124.047 72.7246 119.572 72.7246 114.051V104.055C72.7246 109.576 77.2192 114.051 82.7639 114.051C88.3086 114.051 92.8033 109.576 92.8033 104.055V99.0575C92.8033 104.578 97.2979 109.053 102.843 109.053C108.387 109.053 112.882 104.578 112.882 99.0575V104.055C112.882 109.576 117.377 114.051 122.921 114.051C128.466 114.051 132.961 109.576 132.961 104.055V109.053C132.961 114.574 137.455 119.049 143 119.049C148.545 119.049 153.039 114.574 153.039 109.053V104.055C153.039 109.576 157.534 114.051 163.079 114.051C168.623 114.051 173.118 109.576 173.118 104.055V99.0575C173.118 104.578 177.613 109.053 183.157 109.053C188.702 109.053 193.197 104.578 193.197 99.0575V104.055C193.197 109.576 197.691 114.051 203.236 114.051C208.781 114.051 213.275 109.576 213.275 104.055V114.051C213.275 119.572 217.77 124.047 223.315 124.047C227.718 124.047 231.45 121.22 232.803 117.294C233.147 115.22 233.354 114.051 233.354 114.051C233.354 115.188 233.154 116.276 232.803 117.294C230.838 129.151 224.381 170.755 226.222 194.951C218.71 206.013 209.033 215.5 197.794 222.804C205.624 231.675 216.178 239 229.689 239C263.937 239 282.302 125.819 246.711 60.2945L246.711 60.2945Z" fill="#B8A88F"/>
<path fill-rule="evenodd" clip-rule="evenodd" d="M193.197 123.048C178.714 123.048 166.758 134.009 165.25 148.038H120.75C119.242 134.009 107.286 123.048 92.8032 123.048C77.3024 123.048 64.693 135.603 64.693 151.036C64.693 166.47 77.3024 179.025 92.8032 179.025C107.286 179.025 119.242 168.062 120.75 154.035H165.25C166.758 168.062 178.714 179.025 193.197 179.025C208.696 179.025 221.307 166.47 221.307 151.036C221.307 135.603 208.696 123.048 193.197 123.048ZM92.8032 173.027C80.6244 173.027 70.7166 163.162 70.7166 151.036C70.7166 138.91 80.6244 129.046 92.8032 129.046C104.982 129.046 114.89 138.91 114.89 151.036C114.89 163.162 104.982 173.027 92.8032 173.027ZM193.197 173.027C181.018 173.027 171.11 163.162 171.11 151.036C171.11 138.91 181.018 129.046 193.197 129.046C205.375 129.046 215.283 138.91 215.283 151.036C215.283 163.162 205.375 173.027 193.197 173.027Z" fill="#B8A88F"/>
<path fill-rule="evenodd" clip-rule="evenodd" d="M81.2909 193.019C80.8231 193.019 80.3613 192.803 80.0671 192.396C79.5812 191.725 79.7338 190.788 80.4084 190.303L87.3737 185.305C88.0484 184.821 88.9901 184.972 89.475 185.645C89.9619 186.317 89.8093 187.253 89.1346 187.738L82.1694 192.736C81.9033 192.927 81.5951 193.019 81.2909 193.019Z" fill="#B8A88F"/>
<path fill-rule="evenodd" clip-rule="evenodd" d="M89.3229 193.019C88.8551 193.019 88.3933 192.803 88.0991 192.396C87.6132 191.725 87.7658 190.788 88.4405 190.303L95.4057 185.305C96.0804 184.821 97.0211 184.972 97.507 185.645C97.9939 186.317 97.8413 187.253 97.1666 187.738L90.2013 192.736C89.9353 192.927 89.6271 193.019 89.3229 193.019Z" fill="#B8A88F"/>
<path fill-rule="evenodd" clip-rule="evenodd" d="M97.3539 193.019C96.8861 193.019 96.4243 192.803 96.1301 192.396C95.6442 191.725 95.7968 190.788 96.4714 190.303L103.437 185.305C104.112 184.821 105.053 184.972 105.538 185.645C106.025 186.317 105.872 187.253 105.198 187.738L98.2324 192.736C97.9663 192.927 97.6581 193.019 97.3539 193.019Z" fill="#B8A88F"/>
<path fill-rule="evenodd" clip-rule="evenodd" d="M181.684 193.019C181.216 193.019 180.755 192.803 180.461 192.396C179.975 191.725 180.128 190.788 180.802 190.303L187.768 185.305C188.444 184.821 189.383 184.972 189.869 185.645C190.356 186.317 190.203 187.253 189.529 187.738L182.563 192.736C182.297 192.927 181.989 193.019 181.684 193.019Z" fill="#B8A88F"/>
<path fill-rule="evenodd" clip-rule="evenodd" d="M189.715 193.019C189.247 193.019 188.786 192.803 188.492 192.396C188.006 191.725 188.159 190.788 188.833 190.303L195.799 185.305C196.475 184.821 197.415 184.972 197.9 185.645C198.387 186.317 198.234 187.253 197.56 187.738L190.594 192.736C190.328 192.927 190.02 193.019 189.715 193.019Z" fill="#B8A88F"/>
<path fill-rule="evenodd" clip-rule="evenodd" d="M197.747 193.019C197.279 193.019 196.818 192.803 196.524 192.396C196.038 191.725 196.191 190.788 196.865 190.303L203.831 185.305C204.507 184.821 205.447 184.972 205.932 185.645C206.419 186.317 206.266 187.253 205.592 187.738L198.626 192.736C198.36 192.927 198.052 193.019 197.747 193.019Z" fill="#B8A88F"/>
</svg>
